/* XPM */
static char * book.xpm [] = {
"64 52 16 1",
"   m white  c #76008C00A100",
". c #76008C00A100",
"X  m white  c #FF00FF00FF00",
"o c #3B0046005000",
"O  m black  c #640064006400",
"+  m black  c #7D007D007D00",
"@  m white  c #AF00AF00AF00",
"#  m white  c #C800C800C800",
"$  m white  c #960096009600",
"%  m white  c #FF000000FF00",
"&  m black  c #4B004B004B00",
"*  m black  c #000000000000",
"= c #C100CB00D500",
"-  m black  c #FF0000000000",
";  m white  c #E100E100E100",
":  m black  c #00000000FF00",
"                                                                ",
"...........................................   .     ..      ....",
"................................................................",
".. ........................XXXXXXXXXX...........................",
"..........................XXXXXXXXXXXX..........................",
".........................XXXXXXXXXXXXXX.........................",
"........................XXXXXXXXXXXXXXXX........................",
"........................XXXXXX....XXXXXX........................",
"........................XXXXX......XXXXX........................",
"...............oooooooooXXXXX......XXXXX........................",
"...............oO+@###@+XXXXX......XXXXX....ooooooooooooo.......",
"...............oO+$%@%+&&&........XXXXXX....oO$#@#@#$#+o*=......",
"...............oO+%#-+-OO&oooooooXXXXXX.....oO+$@@$$$$O&*=......",
"........ooooooooO+$%@-+%O&*OO+$OXXXXXXoooooooO+$@@$$$$O&*=......",
"........o@;#;#@*O+%#-+-OO&*O+$OXXXXXX*@:#:@&*O@#;;##@$O&*=......",
"........o;#@@$+*O+$%@-$%O&*O+$XXXXXX&*:@:+:&*O+++OOOOOO&*=......",
"........o;#@@$+*O$##@$$$+&*O+$XXXXXO&*O:@:O&*O+$@@$$++O&*=......",
"........o;#@@$+*OOOOOOO&&&*O+$XXXXOO&*:@:+:&*O+$@@$$++O&*=......",
"........o;@+OO+*O+-#-+-OO&*O+$XXXXOO&*O:&:O&*O+$@+&&++O&*=......",
"........o;@@@O+*O+$%&-&%O&*O+@$$$+OO&*:@:+:&*O+$@+$&++O&*=......",
"........o;@+OO+*O+%O-&-OO&*O+@$$$+OO&*O:&:O&*O+$@+O&++O&*=......",
"........o;##@$+*O+$%&-&%O&*O+$XXXXOO&*:@:+:&*O+$@@&$++O&*=......",
"........o;@+OO+*O+%#-+-OO&*O+$XXXXOO&*O:&:O&*O+$@+O&++O&*=......",
"........o;#+@O+*O+$%@-+%O&*O+$XXXXOO&*:@:+:&*O+$@+O&++O&*=......",
"........o;@+OO+*O+%#-+-OO&*O+$XXXXOO&*O:@:O&*O+$@@&$++O&*=......",
"........o;##@$+*O+$%&-&%O&*O+$$$$+OO&*:@:+:&*O+$@+O&++O&*=......",
"........o;@+OO+*O+%O-&-OO&*O+@@$$+OO&*O:@:O&*O+$@+$&++O&*=......",
"........o;@+OO+*O+$%&-&%O&*O+@@$$+OO&*:@:+:&*O+$@+$&++O&*=......",
"........o;#@@$+*O+%#-+-OO&*O+@@$$+OO&*O:@:O&*O+$@@$$++O&*=......",
"........o;@+OO+*O+$%@-+%O&*O+@@$$+OO&*:@:+:&*O+$@+O&++O&*=......",
"........o;@@@O+*O+%#-+-OO&*O+@@$$+OO&*O:@:O&*O+$@@&$++O&*=......",
"........o;@+OO+*O+$%@-+%O&*O+@@$$+OO&*:@:+:&*O+$@@O$++O&*=......",
"........o;#@@$+*O+%#-+-OO&*O+@@$$+OO&*O:@:O&*O+$@@$$++O&*=......",
"........o;#@@$+*O+$%@-+%O&*O+@@$$+OO&*:@:+:&*O+$@@$$++O&*=......",
"........o;#@@$+*O+%#-+-OO&*O+@@$$+OO&*O:@:O&*O+$@@$$++O&*=......",
"........o;#@@$+*O+%#-+-OO&*O+@@$$+OO&*O:@:O&*O+$@@$$++O&*=......",
"........o;#@@$+*O+$%@-+%O&*O++O&$&&&&*:@:+:&*O+$@@$$++O&*=......",
"........o;#@@$+*O+%#-+-OO&*O+@@$$++O&*O:@:O&*O+$@@$$++O&*=......",
"........o;#@@$+*O+$%@-+%O&*O++O&&+&&&*:@:+:&*OO+++$O&&O&*=......",
"........o;#@@$+*O+%#-+-OO&*O+@@$$++O&*O:&:O&*O+$@@$$++O&*=......",
"........o;#@@$+*O+$%@-+%O&*O++O$&&&&&*:@:+:&*O+$@+$&++O&*=......",
"........o;#@@$+*O$@@$$$++&*O+@@$$+OO&*O:&:O&*O+$@@$$++O&*=......",
"........o;#@@$+*OOOOOOO&&&*O+@@$$+OO&*:@:+:&*O+$@@$$++O&*=......",
"........o;@+OO+*O+%#-+-OO&*O+@@$$+OO&*O:@:O&*O@#;;##@$+&*=......",
"........o;@+OO+*O+$%@-+%O&*O+@@$$+OO&*:@:+:&*O+++OOOOOO&*=......",
"........o;#@@$+*O+-#-+-OO&*O+@@$$+OO&*O:@:O&*O+$@@$$++O&*=......",
"........o##@@$+*O+$%@-O%O&*O+@@$$+OO&*:@:O:&*&+$@@$$++O&*=......",
"........o@@$$++*&OOOOOO&&&*OOO+++O&&&*o:&:&&*&O+++++++O&*=......",
"........o************************************************=......",
"........o=================================================......",
"................................................................",
"                                                                "};
