/* XPM */
static char * edit.xpm [] = {
"64 64 9 1",
"   m white  c #B300B300B300",
".  m black  c #000000000000",
"X  m black  c #4C004C004C00",
"o  m white  c #FF00FF00FF00",
"O  m white  c #CC00CC00CC00",
"+  m white  c #72009F00FF00",
"@  m white  c #BB00B3009000",
"#  m white  c #BE00D200BE00",
"$  m black  c #0000CC000000",
"                                                   ...XX..oOoO..",
"                                                  ...X....OoOoOo",
"                                                  ..X.....XOOOoO",
"                                                 ...X...XX.OOOOO",
"                                                 .....XX+X.O..OO",
"                                                 ....X++++.O.OOO",
"                                                 ...X++++O.XO.OO",
"                                                 ..X+++++.XOX.XO",
"                                                 .X++o+++.OOOO.X",
"                                                  .+o+++X.XOXO.O",
"                                                  .+o+++.XOXOX.X",
"                         oooo                      ++++.XOXOX.XO",
"                         oOOoooo                   +++X..XXX.XOX",
"                         oOOOOOoooo                o++X  X....XX",
"                         oOXXXO.o++o+o             o++X       X.",
"                         oOXooXXXO+O++o+o          +++X         ",
"                         oOXoOoXoXXX+++++o+o       +++X         ",
"                         o.XXOOXooooX+X+++++o+o    o++X         ",
"                         ooXoXX.oOO+o+oX+X+++++o+oX+++X         ",
"                         oOXooooXXX++++o+oX+X++++o++++X         ",
"                         oOXo@@@oooXX+++++o+oX+X++.+++Xo        ",
"                         oOXo@@@@@@o+oXX+++++oXoX+X++++XO       ",
"                         oOXX@@@@@@@@+o+oXX+++X+oXoX++++O       ",
"                         oOXOXXX@@@o+@+@+o+oXX.o+X+o+o+X.       ",
"                         oOXOOOOXXX@o+@+@+@+o+oXX.o+X+++.       ",
"                         oOXOOOOOOOXXX+@+@+@+@+o+oXX.o+X.       ",
"                         oOXOOOOOOOO++XXX+@+@+@+@+o+X+.+.       ",
"                         oOXOOOOOOOOo++++XXX+@+@+@+@XooX.       ",
"                         oOXOOOOOOOOO+++++++XXX+@+@+X+++.       ",
"                         oOXOOOOOOXOO++++++++++XXX+@Xo+X.       ",
"                         oOXOO..O.#X.o++++++++++++XXX+++.       ",
"                         oOXOO.#X.X#.O+++++++++++++++o+X.       ",
"                         oOXOO.####...++++++++++++++++++.       ",
"                         oOXOO.######.o++++XXX+++++++o+X.       ",
"                         oOXOO.X#####.o++++XooXXX+++++++.       ",
"                         oOXOOOO..X##.O++++Xoooo.++++o+X.       ",
"                         oOXOXXOOOO...Oo++.Xoooo.+++++++.       ",
"                         o.XOX...XOOOOOoo.OXoooo.++++o+X.       ",
"          ........       ooXOOOX....XOOOOOOXoooo.+++++++.       ",
"        ..XXOXOOoX..     oOXOOOOOOX...XOOOOX..oo.++++o+X.       ",
"       .XOXOOOXXXXoX.    oOXoOOOOOOOOXXOOXXOOO...+++.+++.       ",
"       .XX$$$$$o$$Xo.    oOOOoooOOOOOOOOOX...XOOOo..Oo+X.       ",
"       X.$$$$$$$o$$..    o..O.oOoooOOOOOOOOX....XOOOOoo..       ",
"       Xo..$$$$$$..X.      X...OOOOoooOOOOOOOOX...XOOo.X..      ",
"       XooO......XOX.         X...OOOOoooOOOOOOOOXXOOoOX. . .   ",
"       XoOoOOOOOOOXX.            X...OOOOoooOOOOOOOOOo.X.. . . .",
"       XooOOO..XOXOX.               X...OOOOoooOOOOOOooX. . . . ",
"       XoOoOOO.OOOXX.                  X...OOOOoooOOOoOX.. . . .",
"      .XooOOO.OXOXOX. X X                 X...OOXoooooOX. . . . ",
"       ..Oo..OOOOOXX.X X X                   X...OOOOoOX.. . . .",
"       Xo..OOOOXOXOX. X X                       X...OOOX. . .   ",
"       XoOoOOOOOOOXX.X X X                         X...X..      ",
"       .ooOOOOOXOXOX. X X                             X..       ",
"        .OoOOOOOOOX. X X                                        ",
"         ..OOOOXO.. X X                                         ",
"           ......X X                                            ",
"                                                                ",
"                                                                ",
"                                                                ",
"                                                                ",
"                                                                ",
"                                                                ",
"                                                                ",
"                                                                "};
