/* XPM */
static char * moteur.xpm [] = {
"92 69 5 1",
"   m None   c None",
".  m black  c #0a000a000a00",
"X  m white  c #5c005c005c00",
"o  m black  c #8b008b008300",
"O  m black  c #c900c900c900",
"                                                                                            ",
"                                                                                            ",
"                                                                                            ",
"                                                                                            ",
"                                                                                            ",
"                                                                                            ",
"                                                                                            ",
"                                                                                            ",
"                                                                                            ",
"                                                                                            ",
"           .......................                                                          ",
"          .........................                                                         ",
"         ....XXXXXXXXXXX...     ........................................                    ",
"        ...XXXXXXXXXXX....   ....oooooooooooooooooooooooooooooooo........                   ",
"       ....XXXXXXXXXX...OO ...ooooooooooooooooooooooooooooooooo...XXXXXX..                  ",
"      ....XXXXXXXXXX....O .......................................XXXXXXXXX..                ",
"      ...XXXXXXXXXXX...OO..OOOOOOOOOOOOOOOOOOOOOOOOOOOOOOOOOOO..XXXXXXXXXXX..               ",
"     ...XXXXXXXXXXX...O ..OOOOOOOOOOOOOOOOOOOOOOOOOOOOOOOOOOO...XXXXXXXXXXXX..              ",
"     ...XXXXXXXXXX...OO......................................XXXXXXXXXXXXXXXX.              ",
"    ....XXXXXXXXXX...O .oooooooooooooooooooooooooooooooooooo.XXXXXXXXXXXXXXXXX.             ",
"    ...XXXXXXXXXXX..O ..ooooooooooooooooooooooooooooooooooo..XXXXXXXXXXXXXXXXX..            ",
"    ..XXXXXXXXXXX..OO .oooooooooooooooooooooooooooooooooooo..XXXXXXXXXXXXXXXXXX.            ",
"   ...XXXXXXXXXXX..O  .......................................XXXXX.....XXXXXXXX..           ",
"   ...XXXXXXXXXX...O ..OOOOOOOOOOOOOOOOOOOOOOOOOOOOOOOOOOO..XXXXX...  ...XXXXXX..           ",
"  ...XXXXXXXXXXX..OO .OOOOOOOOOOOOOOOOOOOOOOOOOOOOOOOOOOOO..XXXXX...OO  .XXXXXX..           ",
"  ...XXXXXXXXXXX..OO..OOOOOOOOOOOOOOOOOOOOOOOOOOOOOOOOOOOO..XXXX. OOOOOO..XXXXX..           ",
"  ..XXXXXXXXXXX..OOO........................................XXX..OOOOOO  .XXXXX..           ",
" ...XXXXXXXXXXX..OO .oooooooooooooooooooooooooooooooooooo...XXX..OOO ....................   ",
" ..XXXXXXXXXXXX..OO .oooooooooooooooooooooooooooooooooooo...XXX. OO .oooooooooooooooo..O..  ",
" ..XXXXXXXXXXXX..OO .oooooooooooooooooooooooooooooooooooo..XXXX.OOO..ooooooooooooooo. OOO.  ",
" ..XXXXXXXXXXX...OO .oooooooooooooooooooooooooooooooooooo..XXX..OOO.oooooooooooooooo.OOOOO. ",
" ..XXXXXXXXXXX...OO .ooooooooooooooooooooooooooooooooooo...XXX. OO.ooooooooooooooooo.OOOOO. ",
" ..XXXXXXXXXXX..OOO........................................XXX..OOO.oooooooooooooooo.OOOOO. ",
" ..XXXXXXXXXXX..OOO.OOOOOOOOOOOOOOOOOOOOOOOOOOOOOOOOOOOO...XXXX. OO.oooooooooooooooo.OOOOO. ",
" ..XXXXXXXXXXX..OOO.OOOOOOOOOOOOOOOOOOOOOOOOOOOOOOOOOOOO...XXXX. OO.oooooooooooooooo.OOOOO. ",
" ..XXXXXXXXXXX..OOO.OOOOOOOOOOOOOOOOOOOOOOOOOOOOOOOOOOOO..XXXXX. OO.oooooooooooooooo.OOOO.  ",
" ..XXXXXXXXXXX.. OO..OOOOOOOOOOOOOOOOOOOOOOOOOOOOOOOOOOO..XXXXX.  O..oooooooooooooooo..O..  ",
" ..XXXXXXXXXXX.. OO .OOOOOOOOOOOOOOOOOOOOOOOOOOOOOOOOOOO...XXXXX. OO.....................   ",
" ..XXXXXXXXXXX...OO .......................................XXXXX.  O     .XXXXX..           ",
"  ..XXXXXXXXXX...OOO.oooooooooooooooooooooooooooooooooooo..XXXXX.. OO OOO.XXXXX..           ",
"  ...XXXXXXXXXX.. OO..ooooooooooooooooooooooooooooooooooo..XXXXXX..  OO .XXXXXX..           ",
"  ...XXXXXXXXXX...OO .ooooooooooooooooooooooooooooooooooo...XXXXXX..  ..XXXXXXX..           ",
"   ..XXXXXXXXXX... O .......................................XXXXXXX....XXXXXXXX.            ",
"   ...XXXXXXXXXX...O .OOOOOOOOOOOOOOOOOOOOOOOOOOOOOOOOOOO....XXXXXXXXXXXXXXXXX..            ",
"   ...XXXXXXXXXX...O ..OOOOOOOOOOOOOOOOOOOOOOOOOOOOOOOOOO....XXXXXXXXXXXXXXXXX.             ",
"    ..XXXXXXXXXXX..OO .......................................XXXXXXXXXXXXXXXX..             ",
"    ...XXXXXXXXXX...O .oooooooooooooooooooooooooooooooooooo...XXXXXXXXXXXXXX..              ",
"    ...XXXXXXXXXXX..OO..ooooooooooooooooooooooooooooooooooo...XXXXXXXXXXXXXX..              ",
"     ...XXXXXXXXXX...O ........................................XXXXXXXXXXXX..               ",
"     ...XXXXXXXXXXX..OO .OOOOOOOOOOOOOOOOOOOOOOOOOOOOOOOOOOOO...XXXXXXXXXX..                ",
"      ...XXXXXXXXXX...OO.........................................XXXXXXX...                 ",
"      ...XXXXXXXXXXX...O ..ooooooooooooooooooooooooooooooooooo....XXXXXXX.                  ",
"       ...XXXXXXXXXX...OOO...oooooooooooooooooooooooooooooooooo.....X.XXX.                  ",
"       ....XXXXXXXXXX... O ........................................XXXXXX.                  ",
"        ....XXXXXXXXX....OO..XXXXXXXXXXXXXXXXXXXXXXXXXXXXXXXX.oooXXXXXXXX.                  ",
"         ...................XXXXXXXXXXXXXXXXXXXXXXXXXXXXXXXXX.oooXXXXXXX.                   ",
"          .................XXXXXXXXXXXXXXXXXXXXXXXXXXXXXXXXXX..ooXXXXXX.                    ",
"                 ..ooooooo.....................................ooXXXX..                     ",
"                 ..ooooooooooooooooooooooooooooooooooooooooooooooXX..                       ",
"                 ..oooooooooooooooooooooooooooooooooooooooooooooo...                        ",
"                 ..................................................                         ",
"                                                                                            ",
"                                                                                            ",
"                                                                                            ",
"                                                                                            ",
"                                                                                            ",
"                                                                                            ",
"                                                                                            ",
"                                                                                            "};
