/* XPM */
static char * x.xpm [] = {
"64 39 4 1",
"   m white  c #FF00FF00FF00",
".  m black  c #000000000000",
"X  m black  c #7F007F007F00",
"o  m white  c #EB00E300C000",
"                                                                ",
"                                                                ",
"                                                                ",
"                         ...X                                   ",
"                      ...ooo...X                                ",
"                   ...ooooooooo...X                             ",
"                ...ooo.....ooooooo...X                          ",
"             ...ooo..... .....ooooooo...X                       ",
"          ...ooo.......     .....ooooooo...X                    ",
"       ...ooo.........         .....ooooooo...X                 ",
"       ...ooo...... . ...         .....ooooooo...X              ",
"       .oo...oooo...... ....         .....ooooooo...X           ",
"       .ooooo...ooooo.... . ...         .....ooooooo...X        ",
"       .oooooooo...ooooo..... ....         .....ooooooo...X     ",
"       .ooooooooooo...oooooo.. . ....         ......oooooo...X  ",
"       .oooooooooooooo...ooooo.... . ...      ..........ooooo.. ",
"       .ooX..oooooooooooo...ooooo.... . ..   ..........oooo.... ",
"       .ooX.....oooooooooooo...ooooo.... ......  ...oooo....o.. ",
"       .ooXo.......oooooooooooo...ooooo... ... ...ooo....o.o... ",
"       .ooX.o.........oooooooooooo...ooooo.....ooo....o.o.o.o.. ",
"       .ooXo.............oooooooooooo...ooooooo....o.....o.o... ",
"       .ooX.....X...........oooooooooooo...o....o.o. X ...o.o.. ",
"       .......X . X............oooooooooooo..o.o.o.XXX.....o... ",
"       ......X . . . X............ooooooooo.o.o.o.oXX ....o.o.. ",
"          .X    X . . . X............oooooo..o.o.o.XX......o... ",
"        .X         X . . . X............ooo.o.o.o.oX......o.o.. ",
"      .X              X . . . X.........ooo..o.o.o.oX....o.o... ",
"    .X                   X . . . X......ooo.o.o.o.o.o.o.o.o.o.. ",
"  .X                        X . . . ....ooo..o.o.o.o.o.o.o..... ",
" ..                            X . .....ooo.o.o.o.o.o.o.......  ",
"   ...                            X.....ooo..o.o.o.o.......     ",
"      ...                        X......ooo.o.o.o.......        ",
"         ...                   X........ooo..o.......           ",
"            ...              X..    ..............              ",
"               ...        X...         ........                 ",
"                  ...  X...                                     ",
"                     ...                                        ",
"                                                                ",
"                                                                "};
