/* XPM */
static char * stopsign.xpm [] = {
/* stopsign pixmap
 * width height ncolors chars_per_pixel */
"64 64 4 1",
"   m white  c #FF00FF00FF00",
".  m black  c #000000000000",
"X  m black  c #FF0000000000",
"o c #D7006E006E00",
/* pixels */
"                    ........................                    ",
"                    ........................                    ",
"                  ..                        ..                  ",
"                  ..                        ..                  ",
"                ..  XXXXXXXXXXXXXXXXXXXXXXXX  ..                ",
"                ..  XXXXXXXXXXXXXXXXXXXXXXXX  ..                ",
"              ..  XXXXXXXXXXXXXXXXXXXXXXXXXXXX  ..              ",
"              ..  XXXXXXXXXXXXXXXXXXXXXXXXXXXX  ..              ",
"            ..  XXXXXXXXXXXXXXXXXXXXXXXXXXXXXXXX  ..            ",
"            ..  XXXXXXXXXXXXXXXXXXXXXXXXXXXXXXXX  ..            ",
"          ..  XXXXXXXXXXXXXXXXXXXXXXXXXXXXXXXXXXXX  ..          ",
"          ..  XXXXXXXXXXXXXXXXXXXXXXXXXXXXXXXXXXXX  ..          ",
"        ..  XXXXXXXXXXXXXXXXXXXXXXXXXXXXXXXXXXXXXXXX  ..        ",
"        ..  XXXXXXXXXXXXXXXXXXXXXXXXXXXXXXXXXXXXXXXX  ..        ",
"      ..  XXXXXXXXXXXXXXXXXXXXXXXXXXXXXXXXXXXXXXXXXXXX  ..      ",
"      ..  XXXXXXXXXXXXXXXXXXXXXXXXXXXXXXXXXXXXXXXXXXXX  ..      ",
"    ..  XXXXXXXXXXXXXXXXXXXXXXXXXXXXXXXXXXXXXXXXXXXXXXXX  ..    ",
"    ..  XXXXXXXXXXXXXXXXXXXXXXXXXXXXXXXXXXXXXXXXXXXXXXXX  ..    ",
"  ..  XXXXXXXXXXXXXXXXXXXXXXXXXXXXXXXXXXXXXXXXXXXXXXXXXXXX  ..  ",
"  ..  XXXXXXXXXXXXXXXXXXXXXXXXXXXXXXXXXXXXXXXXXXXXXXXXXXXX  ..  ",
"..  XXXXXX      XXXX          XXXX      XXXX        XXXXXXXX  ..",
"..  XXXXXX      XXXX          XXXX      XXXX        XXXXXXXX  ..",
"..  XXXX  XXXXXX  XXXXXX  XXXXXX  XXXXXX  XX  XXXXXX  XXXXXX  ..",
"..  XXXX  XXXXXX  XXXXXX  XXXXXX  XXXXXX  XX  XXXXXX  XXXXXX  ..",
"..  XXXX  XXXXXXXXXXXXXX  XXXXXX  XXXXXX  XX  XXXXXX  XXXXXX  ..",
"..  XXXX  XXXXXXXXXXXXXX  XXXXXX  XXXXXX  XX  XXXXXX  XXXXXX  ..",
"..  XXXX  XXXXXXXXXXXXXX  XXXXXX  XXXXXX  XX  XXXXXX  XXXXXX  ..",
"..  XXXX  XXXXXXXXXXXXXX  XXXXXX  XXXXXX  XX  XXXXXX  XXXXXX  ..",
"..  XXXXXX  XXXXXXXXXXXX  XXXXXX  XXXXXX  XX  XXXXXX  XXXXXX  ..",
"..  XXXXXX  XXXXXXXXXXXX  XXXXXX  XXXXXX  XX  XXXXXX  XXXXXX  ..",
"..  XXXXXXXX  XXXXXXXXXX  XXXXXX  XXXXXX  XX        XXXXXXXX  ..",
"..  XXXXXXXX  XXXXXXXXXX  XXXXXX  XXXXXX  XX        XXXXXXXX  ..",
"..  XXXXXXXXXX  XXXXXXXX  XXXXXX  XXXXXX  XX  XXXXXXXXXXXXXX  ..",
"..  XXXXXXXXXX  XXXXXXXX  XXXXXX  XXXXXX  XX  XXXXXXXXXXXXXX  ..",
"..  XXXXXXXXXXXX  XXXXXX  XXXXXX  XXXXXX  XX  XXXXXXXXXXXXXX  ..",
"..  XXXXXXXXXXXX  XXXXXX  XXXXXX  XXXXXX  XX  XXXXXXXXXXXXXX  ..",
"..  XXXXXXXXXXXX  XXXXXX  XXXXXX  XXXXXX  XX  XXXXXXXXXXXXXX  ..",
"..  XXXXXXXXXXXX  XXXXXX  XXXXXX  XXXXXX  XX  XXXXXXXXXXXXXX  ..",
"..  XXXXXXXXXXXX  XXXXXX  XXXXXX  XXXXXX  XX  XXXXXXXXXXXXXX  ..",
"..  XXXXXXXXXXXX  XXXXXX  XXXXXX  XXXXXX  XX  XXXXXXXXXXXXXX  ..",
"..  XXXX  XXXXXX  XXXXXX  XXXXXX  XXXXXX  XX  XXXXXXXXXXXXXX  ..",
"..  XXXX  XXXXXX  XXXXXX  XXXXXX  XXXXXX  XX  XXXXXXXXXXXXXX  ..",
"..  XXXXXX      XXXXXXXX  XXXXXXXX      XXXX  XXXXXXXXXXXXXX  ..",
"..  XXXXXX      XXXXXXXX  XXXXXXXX      XXXX  XXXXXXXXXXXXXX  ..",
"  ..  XXXXXXXXXXXXXXXXXXXXXXXoXXXXXXXXXXXXXXXXXXXXXXXXXXXX  ..  ",
"  ..  XXXXXXXXXXXXXXXXXXXXXXXXXXXXXXXXXXXXXXXXXXXXXXXXXXXX  ..  ",
"    ..  XXXXXXXXXXXXXXXXXXXXXXXXXXXXXXXXXXXXXXXXXXXXXXXX  ..    ",
"    ..  XXXXXXXXXXXXXXXXXXXXXXXXXXXXXXXXXXXXXXXXXXXXXXXX  ..    ",
"      ..  XXXXXXXXXXXXXXXXXXXXXXXXXXXXXXXXXXXXXXXXXXXX  ..      ",
"      ..  XXXXXXXXXXXXXXXXXXXXXXXXXXXXXXXXXXXXXXXXXXXX  ..      ",
"        ..  XXXXXXXXXXXXXXXXXXXXXXXXXXXXXXXXXXXXXXXX  ..        ",
"        ..  XXXXXXXXXXXXXXXXXXXXXXXXXXXXXXXXXXXXXXXX  ..        ",
"          ..  XXXXXXXXXXXXXXXXXXXXXXXXXXXXXXXXXXXX  ..          ",
"          ..  XXXXXXXXXXXXXXXXXXXXXXXXXXXXXXXXXXXX  ..          ",
"            ..  XXXXXXXXXXXXXXXXXXXXXXXXXXXXXXXX  ..            ",
"            ..  XXXXXXXXXXXXXXXXXXXXXXXXXXXXXXXX  ..            ",
"              ..  XXXXXXXXXXXXXXXXXXXXXXXXXXXX  ..              ",
"              ..  XXXXXXXXXXXXXXXXXXXXXXXXXXXX  ..              ",
"                ..  XXXXXXXXXXXXXXXXXXXXXXXX  ..                ",
"                ..  XXXXXXXXXXXXXXXXXXXXXXXX  ..                ",
"                  ..                        ..                  ",
"                  ..                        ..                  ",
"                    ........................                    ",
"                    ........................                    "};
