#define eye.xbm_width 64
#define eye.xbm_height 64
static char eye.xbm_bits[] = {
   0x00, 0x00, 0x00, 0x00, 0x00, 0x00, 0x00, 0x00, 0x00, 0x00, 0x00, 0x00,
   0x00, 0x00, 0x00, 0x00, 0x00, 0x00, 0x00, 0x00, 0x00, 0x00, 0x00, 0x00,
   0x00, 0x00, 0x00, 0x00, 0x00, 0x00, 0x00, 0x00, 0x00, 0x00, 0x00, 0x00,
   0x00, 0x00, 0x00, 0x00, 0x00, 0x00, 0x00, 0x00, 0x00, 0x00, 0x00, 0x00,
   0x00, 0x00, 0x00, 0x00, 0x00, 0x00, 0x00, 0x00, 0x00, 0x00, 0x00, 0x7c,
   0xbf, 0x01, 0x00, 0x00, 0x00, 0x00, 0x08, 0xed, 0xfb, 0x07, 0x00, 0x00,
   0x00, 0x00, 0x04, 0x00, 0xeb, 0x1f, 0x00, 0x00, 0x00, 0x00, 0x60, 0x77,
   0x9c, 0xff, 0x00, 0x00, 0x00, 0x00, 0x0d, 0x40, 0xc4, 0xfd, 0x0c, 0x00,
   0x00, 0x00, 0x00, 0x00, 0x2a, 0xff, 0x1b, 0x00, 0x00, 0x00, 0x00, 0x00,
   0x54, 0xf5, 0x0f, 0x00, 0x00, 0x00, 0x00, 0x00, 0x00, 0xea, 0xff, 0x00,
   0x00, 0x04, 0x00, 0x00, 0x44, 0x54, 0xff, 0x01, 0x00, 0x00, 0x00, 0x00,
   0xaa, 0xaa, 0x7e, 0x01, 0x00, 0x00, 0x00, 0x20, 0x52, 0x55, 0xfd, 0x03,
   0x00, 0x00, 0x00, 0xa2, 0xaa, 0xaa, 0xfe, 0x03, 0x00, 0x00, 0x40, 0xa4,
   0xff, 0x57, 0xf5, 0x01, 0x00, 0x00, 0x80, 0x7c, 0xff, 0xaf, 0xea, 0x03,
   0x00, 0x00, 0x10, 0xef, 0xa4, 0x7e, 0xd5, 0x03, 0x00, 0x00, 0xa0, 0x8b,
   0x7e, 0xf5, 0xaa, 0x03, 0x00, 0x00, 0xc8, 0xda, 0xff, 0xef, 0x55, 0x02,
   0x00, 0x00, 0xf0, 0xf5, 0xff, 0xbf, 0xab, 0x00, 0x00, 0x00, 0x24, 0xff,
   0xff, 0x7f, 0x17, 0x01, 0x00, 0x80, 0xca, 0xff, 0xfd, 0xff, 0x2a, 0x00,
   0x00, 0x40, 0x50, 0x7f, 0xfa, 0xeb, 0x55, 0x00, 0x00, 0x00, 0xfa, 0x37,
   0xfc, 0xff, 0xab, 0x00, 0x00, 0x50, 0xe9, 0x37, 0xfd, 0xbf, 0x57, 0x00,
   0x00, 0xa0, 0xf6, 0x73, 0xfe, 0x77, 0xaf, 0x00, 0x00, 0x40, 0xb9, 0xf5,
   0xff, 0xbf, 0x5f, 0x00, 0x00, 0x80, 0x90, 0x68, 0xff, 0x7f, 0xbd, 0x00,
   0x00, 0x00, 0x2a, 0xe1, 0xfd, 0x9b, 0x7a, 0x00, 0x00, 0x00, 0x64, 0xd2,
   0x7f, 0x4f, 0xb1, 0x00, 0x00, 0x00, 0x90, 0xa4, 0xda, 0x0f, 0x7e, 0x00,
   0x00, 0x00, 0x80, 0x49, 0x7f, 0xa3, 0x97, 0x00, 0x00, 0x00, 0x40, 0x92,
   0xf8, 0xc1, 0x1a, 0x00, 0x00, 0x00, 0x00, 0x65, 0x02, 0x60, 0x2d, 0x00,
   0x00, 0x00, 0x00, 0x88, 0x01, 0xbc, 0x16, 0x00, 0x00, 0x00, 0x00, 0x00,
   0xfe, 0x57, 0x03, 0x00, 0x00, 0x00, 0x00, 0x00, 0xa0, 0xaa, 0x01, 0x00,
   0x00, 0x00, 0x00, 0x00, 0x55, 0xd5, 0x02, 0x00, 0x00, 0x00, 0x00, 0x00,
   0xaa, 0x2a, 0x01, 0x00, 0x00, 0x00, 0x00, 0x00, 0x00, 0x00, 0x00, 0x00,
   0x00, 0x00, 0x00, 0x00, 0x00, 0x14, 0x00, 0x00, 0x00, 0x00, 0x00, 0x00,
   0x00, 0x00, 0x00, 0x00, 0x00, 0x00, 0x00, 0x00, 0x00, 0x00, 0x00, 0x00,
   0x00, 0x00, 0x00, 0x00, 0x00, 0x00, 0x00, 0x00, 0x00, 0x00, 0x00, 0x00,
   0x00, 0x00, 0x00, 0x00, 0x00, 0x00, 0x00, 0x00, 0x00, 0x00, 0x00, 0x00,
   0x00, 0x00, 0x00, 0x00, 0x00, 0x00, 0x00, 0x00, 0x00, 0x00, 0x00, 0x00,
   0x00, 0x00, 0x00, 0x00, 0x00, 0x00, 0x00, 0x00, 0x00, 0x00, 0x00, 0x00,
   0x00, 0x00, 0x00, 0x00, 0x00, 0x00, 0x00, 0x00, 0x00, 0x00, 0x00, 0x00,
   0x00, 0x00, 0x00, 0x00, 0x00, 0x00, 0x00, 0x00, 0x00, 0x00, 0x00, 0x00,
   0x00, 0x00, 0x00, 0x00, 0x00, 0x00, 0x00, 0x00, 0x00, 0x00, 0x00, 0x00,
   0x00, 0x00, 0x00, 0x00, 0x00, 0x00, 0x00, 0x00, 0x00, 0x00, 0x00, 0x00,
   0x00, 0x00, 0x00, 0x00, 0x00, 0x00, 0x00, 0x00, 0x00, 0x00, 0x00, 0x00,
   0x00, 0x00, 0x00, 0x00, 0x00, 0x00, 0x00, 0x00, 0x00, 0x00, 0x00, 0x00,
   0x00, 0x00, 0x00, 0x00, 0x00, 0x00, 0x00, 0x00};
